# xmcd
#
# Track frame offsets: 
#        150
#        14982
#        29325
#
# Disc length: 588 seconds
#
# Revision: 4
# Processed by: cddbd v1.5.2PL0 Copyright (c) Steve Scherf et al.
# Submitted via: ExactAudioCopyFreeDBPlugin 1.0
#
DISCID=22024a03
DTITLE=Jonna - Ei Heru [CDS)
DYEAR=2003
DGENRE=R&B
TTITLE0=Ei Heru
TTITLE1=Ei Heru (Sakris Remix)
TTITLE2=Ei Heru (Instrumentaali)
EXTD=Funny Aussie Stuff
EXTT0=
EXTT1=
EXTT2=
PLAYORDER=
